# xmcd
#
# Track frame offsets:
#	180
#	14931
#	29162
#	47130
#	59262
#	72957
#	90167
#	105454
#	119471
#	135492
#	147013
#	158657
#	171671
#	191566
#	211283
#	227876
#
# Disc length: 3224 seconds
#
# Revision: 1
# Processed by: cddbd v1.4PL0 Copyright (c) Steve Scherf et al.
# Submitted via: audiograbber 1.82.02
#
DISCID=e70c9610
DTITLE=Various Artist - Country Classic Dance
DYEAR=1900
DGENRE=Country
TTITLE0=Dwight Yoakam - Heartaches By The Number
TTITLE1=Eddie Rabbit - I Love A Rainy Night
TTITLE2=The Tractors - Baby Likes To Rock It
TTITLE3=The Oak Ridge Boys - Elvira
TTITLE4=Tanya Tucker - Should I Do It
TTITLE5=Kentucky Headhunters - Honky Tonk Walkin'
TTITLE6=Lee Kernaghan - The Outback Club
TTITLE7=George Ducas - Teardrops
TTITLE8=Mary Chapin Carpenter - I Feel Lucky
TTITLE9=Highway 101 - Bing Bang Boom
TTITLE10=George Strait - You're Right, I'm Wrong
TTITLE11=Alan Jackson - She Likes It Too
TTITLE12=Anne Kirkpatrick - The Dance
TTITLE13=Brooks and Dunn - Neon Moon
TTITLE14=Radney Foster - Easier Said Than Done
TTITLE15=Vince Gill - What The Cowgirls Do
EXTD=
EXTT0=
EXTT1=
EXTT2=
EXTT3=
EXTT4=
EXTT5=
EXTT6=
EXTT7=
EXTT8=
EXTT9=
EXTT10=
EXTT11=
EXTT12=
EXTT13=
EXTT14=
EXTT15=
PLAYORDER=
